<svg xmlns="http://www.w3.org/2000/svg" style="display: none;">

  <!-- LinkedIn -->
  <symbol id="icon-linkedin" viewBox="0 0 256 256">
    <path fill="#0A66C2" d="M218.123 218.127h-37.931v-59.403c0-14.165-.253-32.4-19.728-32.4-19.756 0-22.779 15.434-22.779 31.369v60.43h-37.93V95.967h36.413v16.694h.51a39.907 39.907 0 0 1 35.928-19.733c38.445 0 45.533 25.288 45.533 58.186l-.016 67.013Z"/>
  </symbol>

  <!-- GitHub -->
  <symbol id="icon-github" viewBox="0 0 256 250">
    <path fill="#fff" d="M128.001 0C57.317 0 0 57.307 0 128.001c0 56.554 36.676 104.535 87.535 121.46 6.397 1.185 8.746-2.777 8.746-6.158 0-3.052-.12-13.135-.174-23.83Z"/>
  </symbol>

  <!-- Twitter (X) -->
  <symbol id="icon-twitter" viewBox="0 0 1200 1227">
    <path fill="#fff" d="M714.163 519.284L1160.89 0h-105.86L667.137 450.887 357.328 0H0l468.492 681.821L0 1226.37h105.866l409.625-476.152 327.181 476.152H1200L714.137 519.284h.026Z"/>
  </symbol>

  <!-- Gmail -->
  <symbol id="icon-gmail" viewBox="0 49.4 512 399.42">
    <g fill="none" fill-rule="evenodd">
      <g fill-rule="nonzero">
        <path fill="#4285f4" d="M34.91 448.818h81.454V251L0 163.727V413.91c0 19.287 15.622 34.91 34.91 34.91z"/>
        <path fill="#34a853" d="M395.636 448.818h81.455c19.287 0 34.909-15.622 34.909-34.909V163.727L395.636 251z"/>
        <path fill="#fbbc04" d="M395.636 99.727V251L512 163.727v-46.545c0-43.142-49.25-67.782-83.782-41.891z"/>
      </g>
      <path fill="#ea4335" d="M116.364 251V99.727L256 204.455 395.636 99.727V251L256 355.727z"/>
      <path fill="#c5221f" fill-rule="nonzero" d="M0 117.182v46.545L116.364 251V99.727L83.782 75.291C49.25 49.4 0 74.04 0 117.18z"/>
    </g>
  </symbol>

</svg>
